<?xml version="1.0" standalone="no"?>
<!DOCTYPE svg PUBLIC "-//W3C//DTD SVG 20010904//EN"
 "http://www.w3.org/TR/2001/REC-SVG-20010904/DTD/svg10.dtd">
<svg version="1.0" xmlns="http://www.w3.org/2000/svg"
 width="30.000000pt" height="31.000000pt" viewBox="0 0 30.000000 31.000000"
 preserveAspectRatio="xMidYMid meet">
<metadata>
Created by potrace 1.13, written by Peter Selinger 2001-2015
</metadata>
<g transform="translate(0.000000,31.000000) scale(0.100000,-0.100000)"
fill="#000000" stroke="none">
<path d="M0 236 c0 -82 -4 -78 98 -106 24 -6 60 -27 80 -46 26 -24 31 -32 17
-28 -20 6 -20 5 -1 -10 11 -9 17 -19 13 -22 -12 -12 -53 5 -122 51 -38 25 -73
45 -77 45 -4 0 -8 -27 -8 -60 l0 -60 150 0 150 0 0 68 0 68 -35 17 c-20 9 -42
17 -51 17 -23 0 -87 35 -109 61 l-20 22 25 -6 25 -6 -25 19 -25 20 23 0 c27 0
93 -32 112 -55 13 -15 62 -45 75 -45 3 0 5 29 5 65 l0 65 -150 0 -150 0 0 -74z"/>
</g>
</svg>
